<svg width="17" height="27" viewBox="0 0 17 27" fill="none" xmlns="http://www.w3.org/2000/svg">
<path d="M0.639881 0C0.269424 0 0 0.269424 0 0.639881V26.3362C0 26.7066 0.269424 26.976 0.639881 26.976H16.2328C16.6032 26.976 16.8727 26.7066 16.8727 26.3362V0.639881C16.8727 0.269424 16.6032 0 16.2328 0L0.639881 0ZM3.3678 3.3678H13.4712V20.2068H3.3678V3.3678ZM8.41949 21.8907C9.36247 21.8907 10.1034 22.6316 10.1034 23.5746C10.1034 24.5176 9.36247 25.2585 8.41949 25.2585C7.47651 25.2585 6.73559 24.5176 6.73559 23.5746C6.73559 22.6316 7.47651 21.8907 8.41949 21.8907Z" fill="#6B6767"/>
</svg>
