<svg width="51" height="44" viewBox="0 0 51 44" fill="none" xmlns="http://www.w3.org/2000/svg">
<path d="M28.6124 1.77318C28.3039 1.23431 27.859 0.786613 27.3228 0.475279C26.7866 0.163944 26.1779 0 25.5583 0C24.9387 0 24.33 0.163944 23.7938 0.475279C23.2576 0.786613 22.8128 1.23431 22.5043 1.77318L1.13534 38.2326C-0.288838 40.6638 1.41893 43.7544 4.18938 43.7544H46.9241C49.6946 43.7544 51.4055 40.6607 49.9782 38.2326L28.6124 1.77318ZM25.5521 12.5044C27.2193 12.5044 28.5251 13.9482 28.3568 15.6138L27.2661 26.5732C27.2294 27.0037 27.033 27.4048 26.7156 27.697C26.3982 27.9893 25.983 28.1515 25.5521 28.1515C25.1212 28.1515 24.706 27.9893 24.3886 27.697C24.0712 27.4048 23.8747 27.0037 23.8381 26.5732L22.7473 15.6138C22.7082 15.2208 22.7515 14.8239 22.8746 14.4487C22.9977 14.0735 23.1978 13.7283 23.4621 13.4354C23.7263 13.1425 24.0488 12.9083 24.4088 12.748C24.7687 12.5876 25.1582 12.5047 25.5521 12.5044ZM25.5583 31.2544C26.3848 31.2544 27.1775 31.5837 27.7619 32.1697C28.3463 32.7558 28.6747 33.5506 28.6747 34.3794C28.6747 35.2082 28.3463 36.0031 27.7619 36.5891C27.1775 37.1752 26.3848 37.5044 25.5583 37.5044C24.7318 37.5044 23.9391 37.1752 23.3547 36.5891C22.7703 36.0031 22.4419 35.2082 22.4419 34.3794C22.4419 33.5506 22.7703 32.7558 23.3547 32.1697C23.9391 31.5837 24.7318 31.2544 25.5583 31.2544Z" fill="#E82222"/>
</svg>
