<svg width="21" height="21" viewBox="0 0 21 21" fill="none" xmlns="http://www.w3.org/2000/svg">
<path d="M3.07324 5.04557C3.07324 4.60355 3.24835 4.17962 3.56005 3.86706C3.87175 3.5545 4.2945 3.37891 4.7353 3.37891H16.3697C16.8105 3.37891 17.2333 3.5545 17.545 3.86706C17.8567 4.17962 18.0318 4.60355 18.0318 5.04557V16.7122C18.0318 17.1543 17.8567 17.5782 17.545 17.8908C17.2333 18.2033 16.8105 18.3789 16.3697 18.3789H4.7353C4.2945 18.3789 3.87175 18.2033 3.56005 17.8908C3.24835 17.5782 3.07324 17.1543 3.07324 16.7122V5.04557Z" stroke="black" stroke-width="2" stroke-linecap="round" stroke-linejoin="round"/>
<path d="M8.05957 14.2126V7.5459H11.3837C11.8245 7.5459 12.2473 7.72149 12.559 8.03405C12.8706 8.34661 13.0458 8.77054 13.0458 9.21257C13.0458 9.65459 12.8706 10.0785 12.559 10.3911C12.2473 10.7036 11.8245 10.8792 11.3837 10.8792H8.05957" stroke="black" stroke-width="2" stroke-linecap="round" stroke-linejoin="round"/>
</svg>
