<svg width="21" height="21" viewBox="0 0 21 21" fill="none" xmlns="http://www.w3.org/2000/svg">
<g clip-path="url(#clip0_426_953)">
<path d="M10.5525 2.5459C15.1423 2.5459 18.8628 6.27673 18.8628 10.8792C18.8628 15.4817 15.1423 19.2126 10.5525 19.2126C5.96271 19.2126 2.24219 15.4817 2.24219 10.8792C2.24219 6.27673 5.96271 2.5459 10.5525 2.5459ZM10.5525 5.87923C10.3321 5.87923 10.1207 5.96703 9.96487 6.12331C9.80902 6.27959 9.72147 6.49155 9.72147 6.71256V10.8792C9.72152 11.1002 9.8091 11.3122 9.96496 11.4684L12.4581 13.9684C12.6148 14.1202 12.8247 14.2042 13.0426 14.2023C13.2605 14.2004 13.4689 14.1128 13.623 13.9582C13.7771 13.8037 13.8645 13.5947 13.8664 13.3762C13.8683 13.1577 13.7845 12.9472 13.6331 12.7901L11.3835 10.5342V6.71256C11.3835 6.49155 11.296 6.27959 11.1401 6.12331C10.9843 5.96703 10.7729 5.87923 10.5525 5.87923Z" fill="black"/>
</g>
<defs>
<clipPath id="clip0_426_953">
<rect width="19.9448" height="20" fill="white" transform="translate(0.580078 0.878906)"/>
</clipPath>
</defs>
</svg>
