<svg width="21" height="21" viewBox="0 0 21 21" fill="none" xmlns="http://www.w3.org/2000/svg">
<g clip-path="url(#clip0_426_946)">
<path d="M0.580078 5.87891C0.580078 5.21587 0.842743 4.57998 1.31029 4.11114C1.77783 3.6423 2.41196 3.37891 3.07317 3.37891H18.0317C18.6929 3.37891 19.3271 3.6423 19.7946 4.11114C20.2622 4.57998 20.5248 5.21587 20.5248 5.87891V15.8789C20.5248 16.5419 20.2622 17.1778 19.7946 17.6467C19.3271 18.1155 18.6929 18.3789 18.0317 18.3789H3.07317C2.41196 18.3789 1.77783 18.1155 1.31029 17.6467C0.842743 17.1778 0.580078 16.5419 0.580078 15.8789V5.87891ZM3.07317 4.62891C2.74257 4.62891 2.4255 4.7606 2.19173 4.99502C1.95796 5.22944 1.82663 5.54739 1.82663 5.87891V7.12891H19.2783V5.87891C19.2783 5.54739 19.147 5.22944 18.9132 4.99502C18.6794 4.7606 18.3623 4.62891 18.0317 4.62891H3.07317ZM19.2783 9.62891H1.82663V15.8789C1.82663 16.2104 1.95796 16.5284 2.19173 16.7628C2.4255 16.9972 2.74257 17.1289 3.07317 17.1289H18.0317C18.3623 17.1289 18.6794 16.9972 18.9132 16.7628C19.147 16.5284 19.2783 16.2104 19.2783 15.8789V9.62891Z" fill="black"/>
<path d="M3.07324 13.3789C3.07324 13.0474 3.20457 12.7294 3.43835 12.495C3.67212 12.2606 3.98918 12.1289 4.31979 12.1289H5.56634C5.89694 12.1289 6.214 12.2606 6.44778 12.495C6.68155 12.7294 6.81288 13.0474 6.81288 13.3789V14.6289C6.81288 14.9604 6.68155 15.2784 6.44778 15.5128C6.214 15.7472 5.89694 15.8789 5.56634 15.8789H4.31979C3.98918 15.8789 3.67212 15.7472 3.43835 15.5128C3.20457 15.2784 3.07324 14.9604 3.07324 14.6289V13.3789Z" fill="black"/>
</g>
<defs>
<clipPath id="clip0_426_946">
<rect width="19.9448" height="20" fill="white" transform="translate(0.580078 0.878906)"/>
</clipPath>
</defs>
</svg>
