<svg width="21" height="21" viewBox="0 0 21 21" fill="none" xmlns="http://www.w3.org/2000/svg">
<path d="M10.5528 2.75391C6.08513 2.75391 2.4502 6.39891 2.4502 10.8789C2.4502 15.3589 6.08513 19.0039 10.5528 19.0039C15.0204 19.0039 18.6553 15.3589 18.6553 10.8789C18.6553 6.39891 15.0204 2.75391 10.5528 2.75391ZM10.5528 4.00391C14.3466 4.00391 17.4088 7.07453 17.4088 10.8789C17.4088 14.6833 14.3466 17.7539 10.5528 17.7539C6.75888 17.7539 3.69674 14.6833 3.69674 10.8789C3.69674 7.07453 6.75888 4.00391 10.5528 4.00391ZM10.104 6.87516L6.56068 10.4289L6.11193 10.8789L6.56068 11.3289L10.1052 14.8827L11.0015 14.0039L8.50841 11.5039H14.9157V10.2539H8.50841L11.0015 7.75391L10.104 6.87516Z" fill="black"/>
</svg>
