<svg width="50" height="50" viewBox="0 0 50 50" fill="none" xmlns="http://www.w3.org/2000/svg">
<path d="M24.7607 14.3586C25.0807 13.5146 26.2916 13.5146 26.6126 14.3586L28.6825 20.0925C28.7547 20.2793 28.8819 20.4398 29.0472 20.5528C29.2125 20.6658 29.4082 20.726 29.6085 20.7255H34.6952C35.6352 20.7255 36.0452 21.8955 35.3062 22.4685L31.6864 25.7254C31.5242 25.8501 31.4057 26.0229 31.3479 26.2191C31.29 26.4152 31.2958 26.6247 31.3644 26.8174L32.6863 32.4203C33.0083 33.3203 31.9664 34.0933 31.1784 33.5393L26.2616 30.4193C26.0932 30.301 25.8924 30.2375 25.6866 30.2375C25.4808 30.2375 25.28 30.301 25.1117 30.4193L20.1949 33.5393C19.4079 34.0933 18.365 33.3193 18.687 32.4203L20.0089 26.8174C20.0775 26.6247 20.0833 26.4152 20.0254 26.2191C19.9676 26.0229 19.8491 25.8501 19.6869 25.7254L16.0671 22.4685C15.3271 21.8955 15.7391 20.7255 16.677 20.7255H21.7638C21.9641 20.7261 22.1599 20.666 22.3252 20.553C22.4906 20.4399 22.6177 20.2794 22.6898 20.0925L24.7597 14.3586H24.7607Z" stroke="#9555FF" stroke-width="2" stroke-linecap="round" stroke-linejoin="round"/>
<circle cx="25" cy="25" r="24.5" stroke="#BF9BFA"/>
</svg>
