<svg width="23" height="23" viewBox="0 0 23 23" fill="none" xmlns="http://www.w3.org/2000/svg">
<g filter="url(#filter0_d_426_761)">
<path d="M11.4996 1C10.4653 1 9.47329 1.41089 8.74189 2.14228C8.0105 2.87368 7.59961 3.86566 7.59961 4.9C7.59961 5.82235 7.79591 6.4262 8.33086 7.09375L11.4996 10.75L14.6684 7.09375C15.2033 6.4262 15.3996 5.82235 15.3996 4.9C15.3996 3.86566 14.9887 2.87368 14.2573 2.14228C13.5259 1.41089 12.534 1 11.4996 1Z" stroke="white" stroke-linecap="round" stroke-linejoin="round"/>
<path d="M6.95 9.54297C5.74685 10.0155 5 10.6727 5 11.4C5 12.8365 7.91005 14 11.5 14C15.0899 14 18 12.8365 18 11.4C18 10.6727 17.2531 10.0155 16.05 9.54297" stroke="white" stroke-linecap="round" stroke-linejoin="round"/>
<path d="M11.4996 5.55C11.8586 5.55 12.1496 5.25899 12.1496 4.9C12.1496 4.54101 11.8586 4.25 11.4996 4.25C11.1406 4.25 10.8496 4.54101 10.8496 4.9C10.8496 5.25899 11.1406 5.55 11.4996 5.55Z" stroke="white" stroke-linecap="round" stroke-linejoin="round"/>
</g>
<defs>
<filter id="filter0_d_426_761" x="0.5" y="0.5" width="22" height="22" filterUnits="userSpaceOnUse" color-interpolation-filters="sRGB">
<feFlood flood-opacity="0" result="BackgroundImageFix"/>
<feColorMatrix in="SourceAlpha" type="matrix" values="0 0 0 0 0 0 0 0 0 0 0 0 0 0 0 0 0 0 127 0" result="hardAlpha"/>
<feOffset dy="4"/>
<feGaussianBlur stdDeviation="2"/>
<feComposite in2="hardAlpha" operator="out"/>
<feColorMatrix type="matrix" values="0 0 0 0 0 0 0 0 0 0 0 0 0 0 0 0 0 0 0.25 0"/>
<feBlend mode="normal" in2="BackgroundImageFix" result="effect1_dropShadow_426_761"/>
<feBlend mode="normal" in="SourceGraphic" in2="effect1_dropShadow_426_761" result="shape"/>
</filter>
</defs>
</svg>
