<svg width="50" height="50" viewBox="0 0 50 50" fill="none" xmlns="http://www.w3.org/2000/svg">
<circle cx="25" cy="25" r="24.5" stroke="#BF9BFA"/>
<path d="M25 15C19.5 15 15 19.5 15 25C15 30.5 19.5 35 25 35C30.5 35 35 30.5 35 25C35 19.5 30.5 15 25 15ZM25 17.5C29.15 17.5 32.5 20.85 32.5 25C32.5 29.15 29.15 32.5 25 32.5C20.85 32.5 17.5 29.15 17.5 25C17.5 20.85 20.85 17.5 25 17.5ZM30 20L22.5 22.5L20 30L27.5 27.5L30 20ZM25 23.75C25.7 23.75 26.25 24.3 26.25 25C26.25 25.7 25.7 26.25 25 26.25C24.3 26.25 23.75 25.7 23.75 25C23.75 24.3 24.3 23.75 25 23.75Z" fill="#9555FF"/>
</svg>
