<svg width="50" height="50" viewBox="0 0 50 50" fill="none" xmlns="http://www.w3.org/2000/svg">
<path d="M19.1108 27.7904L29.3083 17.592C29.7112 17.2065 30.249 16.994 30.8066 17.0001C31.3642 17.0062 31.8972 17.2304 32.2916 17.6246C32.6859 18.0189 32.9102 18.5518 32.9165 19.1094C32.9227 19.667 32.7104 20.2049 32.325 20.6079L22.1258 30.8062C21.8932 31.0389 21.5968 31.1975 21.2742 31.262L18 31.917L18.655 28.642C18.7195 28.3194 18.8781 28.023 19.1108 27.7904Z" fill="white" stroke="#9555FF" stroke-width="2" stroke-linecap="round" stroke-linejoin="round"/>
<path d="M27.583 19.8335L30.083 22.3335L27.583 19.8335Z" fill="white"/>
<path d="M27.583 19.8335L30.083 22.3335" stroke="#9555FF" stroke-width="2"/>
<circle cx="25" cy="25" r="24.5" stroke="#BF9BFA"/>
</svg>
