<svg width="50" height="50" viewBox="0 0 50 50" fill="none" xmlns="http://www.w3.org/2000/svg">
<circle cx="25" cy="25" r="24.5" stroke="#BF9BFA"/>
<path d="M29 24.9994H38M38 24.9994L34.667 20.4676M38 24.9994L34.667 29.5313M30 19.3346V17.2658C30 16.9524 29.9426 16.6424 29.8314 16.3554C29.7203 16.0684 29.5578 15.8107 29.3542 15.5985C29.1507 15.3863 28.9104 15.2242 28.6488 15.1225C28.3871 15.0209 28.1097 14.9818 27.834 15.0078L19.834 15.7624C19.3341 15.8095 18.868 16.0679 18.5283 16.4861C18.1886 16.9044 18 17.452 18 18.0204V31.9785C18 32.5469 18.1886 33.0945 18.5283 33.5127C18.868 33.931 19.3341 34.1893 19.834 34.2365L27.834 34.9922C28.1098 35.0182 28.3873 34.9791 28.649 34.8774C28.9107 34.7756 29.151 34.6135 29.3546 34.4011C29.5582 34.1888 29.7206 33.9309 29.8317 33.6438C29.9428 33.3567 30.0001 33.0466 30 32.733V30.6643" stroke="#9555FF" stroke-width="2" stroke-linecap="round" stroke-linejoin="round"/>
</svg>
